<svg width="120" height="40" viewBox="0 0 120 40" fill="none" xmlns="http://www.w3.org/2000/svg">
<g clip-path="url(#clip0_104_1732)">
<path d="M45.7259 28.6225H35.375V10.1777H45.1756C46.5887 10.1777 47.7539 10.3429 48.6717 10.6733C49.6077 10.9853 50.305 11.4808 50.7639 12.1599C51.2228 12.8206 51.452 13.674 51.452 14.7201C51.452 15.8763 51.14 16.794 50.516 17.473C49.892 18.1521 48.9469 18.5467 47.6807 18.6568V19.0147C49.2407 19.0697 50.3968 19.5194 51.1495 20.3636C51.92 21.2079 52.3057 22.254 52.3057 23.502C52.3057 24.5665 52.0669 25.4841 51.5898 26.2549C51.1309 27.0257 50.415 27.613 49.4426 28.0168C48.4698 28.4206 47.2309 28.6225 45.7259 28.6225ZM40.5505 21.217V23.97H45.5335C46.0288 23.97 46.405 23.8966 46.6619 23.7497C46.9189 23.6029 47.0476 23.2267 47.0476 22.621C47.0476 21.997 46.928 21.6116 46.6897 21.4648C46.4509 21.2996 46.0657 21.217 45.5335 21.217H40.5505ZM40.5505 14.8302V17.1977H44.9C45.4326 17.1977 45.7901 17.1152 45.9738 16.95C46.1757 16.7848 46.2767 16.4728 46.2767 16.014C46.2767 15.5184 46.1575 15.1973 45.9188 15.0504C45.6986 14.9036 45.3221 14.8302 44.7899 14.8302H40.5505ZM60.1057 28.8977C58.5825 28.8977 57.2795 28.6133 56.1966 28.0443C55.1323 27.457 54.3155 26.6312 53.7465 25.5667C53.1962 24.4839 52.9206 23.19 52.9206 21.685C52.9206 20.125 53.2053 18.7853 53.7742 17.6657C54.3432 16.5462 55.1782 15.6928 56.2793 15.1055C57.3804 14.4999 58.7112 14.197 60.2712 14.197C61.7944 14.197 63.0606 14.4723 64.0702 15.0229C65.0977 15.5735 65.8595 16.3352 66.3552 17.3079C66.8687 18.2622 67.1257 19.3726 67.1257 20.6389C67.1257 21.0243 67.0984 21.4097 67.0433 21.7952C66.9883 22.1806 66.9424 22.4926 66.9055 22.7312H55.1232V19.9232H62.4184L62.1982 20.0608C62.2164 19.7304 62.1614 19.4368 62.0327 19.1799C61.9226 18.9046 61.7025 18.6843 61.3723 18.5192C61.0603 18.354 60.6014 18.2714 59.9956 18.2714C59.1515 18.2714 58.5643 18.4274 58.2337 18.7394C57.9035 19.033 57.7384 19.5102 57.7384 20.1709V22.1255C57.7384 22.8046 57.7934 23.3276 57.9035 23.6947C58.0135 24.0434 58.2432 24.282 58.5916 24.4105C58.9404 24.5389 59.4726 24.6032 60.1884 24.6032C60.8124 24.6032 61.2436 24.5389 61.4824 24.4105C61.7207 24.2636 61.8403 24.0342 61.8403 23.7222V23.6672H66.9606V23.9975C66.9606 24.9519 66.6763 25.7961 66.1073 26.5302C65.5566 27.2643 64.7675 27.8425 63.7396 28.2646C62.7304 28.6867 61.5192 28.8977 60.1057 28.8977ZM73.4259 28.6225H68.2779V14.4723H73.0957V18.4916L73.4259 18.6293V28.6225ZM73.4259 19.6754H72.3798V16.6196H73.3436C73.747 15.9222 74.2796 15.3441 74.94 14.8853C75.619 14.4264 76.4267 14.197 77.3627 14.197C78.2805 14.197 79.0051 14.3806 79.5376 14.7476C80.0698 15.1147 80.455 15.6377 80.6938 16.3168C80.9325 16.9959 81.0517 17.8034 81.0517 18.7394V21.2996H75.876V19.8956C75.876 19.3634 75.8027 19.0055 75.6558 18.822C75.5089 18.6384 75.1969 18.5467 74.7198 18.5467C74.2978 18.5467 73.9767 18.6109 73.7565 18.7394C73.536 18.8495 73.4259 19.1615 73.4259 19.6754ZM87.1101 28.6225H81.9621V10.1777H87.1101V28.6225ZM93.9117 13.206H88.7637V10.1777H93.9117V13.206ZM93.9395 28.6225H88.7637V14.4723H93.9395V28.6225ZM110.321 28.6225H105.145V20.6389C105.145 19.8864 105.007 19.3634 104.732 19.0697C104.475 18.7761 103.888 18.6293 102.97 18.6293C102.401 18.6293 101.952 18.6843 101.621 18.7944C101.309 18.9046 101.08 19.0973 100.933 19.3726C100.805 19.6479 100.74 20.0424 100.74 20.5563H99.9143V16.6196H100.658C100.915 16.0874 101.273 15.6469 101.731 15.2982C102.19 14.9312 102.722 14.6559 103.328 14.4723C103.934 14.2888 104.585 14.197 105.283 14.197C106.512 14.197 107.494 14.4448 108.228 14.9403C108.962 15.4175 109.495 16.069 109.825 16.8949C110.155 17.7024 110.321 18.5926 110.321 19.5653V28.6225ZM100.74 28.6225H95.5922V14.4723H100.41V18.354L100.74 18.4916V28.6225ZM118.024 28.6225H111.857V22.9239H118.024V28.6225Z" fill="#050430"/>
<path d="M21.7938 3.79492H5.73495C5.10145 3.79492 4.58789 3.28137 4.58789 2.64786V1.5008C4.58789 0.8673 5.10145 0.353744 5.73495 0.353744H21.7938C22.4273 0.353744 22.9408 0.8673 22.9408 1.5008V2.64786C22.9408 3.28137 22.4273 3.79492 21.7938 3.79492Z" fill="#B340C5"/>
<path d="M21.7938 39.3535H5.73495C5.10145 39.3535 4.58789 38.84 4.58789 38.2065V37.0594C4.58789 36.4259 5.10145 35.9123 5.73495 35.9123H21.7938C22.4273 35.9123 22.9408 36.4259 22.9408 37.0594V38.2065C22.9408 38.84 22.4273 39.3535 21.7938 39.3535Z" fill="#B340C5"/>
<path fill-rule="evenodd" clip-rule="evenodd" d="M23.0101 16.4821C23.4581 16.9301 23.4581 17.6564 23.0101 18.1043L14.0016 27.1128C13.5537 27.5608 12.8274 27.5608 12.3795 27.1128L5.66509 20.3984C5.21711 19.9505 5.21711 19.2242 5.66509 18.7762L8.09834 16.343C8.54632 15.895 9.27259 15.895 9.72057 16.343L13.1905 19.813L18.9546 14.0489C19.4026 13.6009 20.1289 13.6009 20.5769 14.0489L23.0101 16.4821Z" fill="#B340C5"/>
</g>
<defs>
<clipPath id="clip0_104_1732">
<rect width="119.6" height="39" fill="white" transform="translate(0 0.353516)"/>
</clipPath>
</defs>
</svg>
