<svg width="153" height="40" viewBox="0 0 153 40" fill="none" xmlns="http://www.w3.org/2000/svg">
<path d="M41.389 28.9355C40.0864 28.9355 38.9233 28.6192 37.8998 27.9864C36.8763 27.3537 36.0668 26.4884 35.4714 25.3905C34.8759 24.2925 34.5781 23.0457 34.5781 21.6501C34.5781 20.2544 34.8759 19.0169 35.4714 17.9376C36.0668 16.8396 36.8763 15.9836 37.8998 15.3696C38.9233 14.7368 40.0864 14.4205 41.389 14.4205C42.4311 14.4205 43.3429 14.6159 44.1246 15.0067C44.9059 15.3975 45.539 15.9464 46.0226 16.6536V9.47852H49.5954V28.6005H46.4135L46.0226 26.6187C45.5758 27.2328 44.9804 27.7724 44.2364 28.2376C43.5106 28.7029 42.5614 28.9355 41.389 28.9355ZM42.1427 25.8092C43.2964 25.8092 44.2364 25.4277 44.9618 24.6647C45.7063 23.8832 46.0785 22.8876 46.0785 21.678C46.0785 20.4684 45.7063 19.4821 44.9618 18.7192C44.2364 17.9376 43.2964 17.5468 42.1427 17.5468C41.0075 17.5468 40.0678 17.9283 39.3234 18.6912C38.579 19.4542 38.2069 20.4405 38.2069 21.6501C38.2069 22.8597 38.579 23.8553 39.3234 24.6368C40.0678 25.4184 41.0075 25.8092 42.1427 25.8092Z" fill="#050430"/>
<path d="M58.8457 28.9349C57.4499 28.9349 56.2128 28.6372 55.1333 28.0417C54.0539 27.4462 53.2072 26.6088 52.5931 25.5295C51.9791 24.4502 51.6719 23.2034 51.6719 21.7891C51.6719 20.3562 51.97 19.0815 52.5654 17.9649C53.1794 16.8484 54.0166 15.9831 55.0774 15.369C56.1569 14.7363 57.4222 14.4199 58.8739 14.4199C60.2324 14.4199 61.4323 14.7177 62.4744 15.3132C63.5166 15.9086 64.3261 16.7275 64.9028 17.7695C65.4987 18.793 65.7964 19.9375 65.7964 21.2029C65.7964 21.4076 65.7868 21.6216 65.7682 21.8449C65.7682 22.0683 65.7591 22.3008 65.7405 22.5428H55.217C55.2915 23.6221 55.6637 24.4688 56.3337 25.0829C57.0222 25.697 57.8503 26.004 58.818 26.004C59.5438 26.004 60.1483 25.8458 60.6323 25.5295C61.1346 25.1945 61.5068 24.7665 61.749 24.2455H65.3778C65.1169 25.1201 64.6797 25.9203 64.0656 26.646C63.4702 27.3532 62.7258 27.9115 61.8327 28.3209C60.9578 28.7302 59.9624 28.9349 58.8457 28.9349ZM58.8739 17.323C57.999 17.323 57.2268 17.5742 56.5568 18.0766C55.8869 18.5604 55.4592 19.3048 55.2729 20.3097H62.1676C62.1117 19.3978 61.7768 18.6721 61.1627 18.1324C60.5487 17.5928 59.7856 17.323 58.8739 17.323Z" fill="#050430"/>
<path d="M67.6865 28.6V14.7549H70.8408L71.1198 17.0996C71.548 16.2808 72.162 15.6295 72.9624 15.1457C73.7809 14.6619 74.7395 14.4199 75.8375 14.4199C77.5492 14.4199 78.88 14.9596 79.829 16.0389C80.778 17.1182 81.2525 18.7 81.2525 20.7842V28.6H77.6796V21.1192C77.6796 19.9282 77.4378 19.0164 76.9538 18.3837C76.4702 17.751 75.7162 17.4346 74.6927 17.4346C73.6878 17.4346 72.8597 17.7882 72.2084 18.4953C71.5757 19.2024 71.2594 20.1887 71.2594 21.4541V28.6H67.6865Z" fill="#050430"/>
<path d="M84.6709 28.6V14.7549H87.8251L88.1319 16.6251C88.5787 15.9552 89.1646 15.4248 89.8904 15.034C90.6349 14.6246 91.4907 14.4199 92.4588 14.4199C94.5986 14.4199 96.1152 15.248 97.0083 16.9042C97.511 16.1413 98.1809 15.5365 99.0181 15.0899C99.8744 14.6433 100.805 14.4199 101.81 14.4199C103.614 14.4199 105.001 14.9596 105.969 16.0389C106.936 17.1182 107.42 18.7 107.42 20.7842V28.6H103.847V21.1192C103.847 19.9282 103.614 19.0164 103.15 18.3837C102.703 17.751 102.005 17.4346 101.056 17.4346C100.088 17.4346 99.3067 17.7882 98.7113 18.4953C98.1341 19.2024 97.846 20.1887 97.846 21.4541V28.6H94.2731V21.1192C94.2731 19.9282 94.0404 19.0164 93.575 18.3837C93.1101 17.751 92.3933 17.4346 91.4257 17.4346C90.4767 17.4346 89.7045 17.7882 89.1091 18.4953C88.5319 19.2024 88.2437 20.1887 88.2437 21.4541V28.6H84.6709Z" fill="#050430"/>
<path d="M114.471 28.9349C113.28 28.9349 112.303 28.7489 111.54 28.3767C110.777 27.9859 110.21 27.4741 109.837 26.8414C109.465 26.2088 109.279 25.5109 109.279 24.7479C109.279 23.4639 109.782 22.4218 110.786 21.6216C111.791 20.8214 113.299 20.4213 115.308 20.4213H118.826V20.0864C118.826 19.1373 118.556 18.4395 118.016 17.9929C117.476 17.5462 116.806 17.323 116.006 17.323C115.281 17.323 114.648 17.4997 114.108 17.8533C113.568 18.1883 113.233 18.6907 113.103 19.3606H109.614C109.707 18.3558 110.042 17.4811 110.619 16.7367C111.215 15.9924 111.978 15.4248 112.908 15.034C113.838 14.6246 114.881 14.4199 116.034 14.4199C118.007 14.4199 119.561 14.9131 120.696 15.8994C121.831 16.8856 122.398 18.2813 122.398 20.0864V28.6H119.356L119.021 26.3669C118.612 27.1113 118.035 27.7254 117.29 28.2092C116.564 28.693 115.625 28.9349 114.471 28.9349ZM115.281 26.1436C116.304 26.1436 117.095 25.8087 117.653 25.1387C118.23 24.4688 118.593 23.6407 118.742 22.6544H115.699C114.75 22.6544 114.071 22.8312 113.662 23.1848C113.252 23.5197 113.048 23.9384 113.048 24.4409C113.048 24.9806 113.252 25.3992 113.662 25.697C114.071 25.9947 114.611 26.1436 115.281 26.1436Z" fill="#050430"/>
<path d="M125.808 28.6V14.7549H128.99L129.325 17.3509C129.827 16.4576 130.507 15.7505 131.363 15.2294C132.237 14.6898 133.261 14.4199 134.433 14.4199V18.1883H133.428C132.646 18.1883 131.949 18.3092 131.335 18.5511C130.721 18.793 130.237 19.2118 129.883 19.8073C129.548 20.4027 129.381 21.2308 129.381 22.2916V28.6H125.808Z" fill="#050430"/>
<path d="M135.762 28.6005V9.47852H139.335V20.3661L144.247 14.7554H148.49L142.824 21.0639L149.411 28.6005H144.945L139.335 21.6501V28.6005H135.762Z" fill="#050430"/>
<path d="M20.221 5.35156H6.13574V9.8041H20.221C22.2285 9.8041 23.856 11.4316 23.856 13.4392V25.1618C23.856 27.1694 22.2285 28.7968 20.221 28.7968H6.13574V33.2494H20.221C24.6876 33.2494 28.3085 29.6285 28.3085 25.1618V13.4392C28.3085 8.9725 24.6876 5.35156 20.221 5.35156Z" fill="#050430"/>
<path d="M19.5839 14.1455L16.4287 11.0039L6.2286 21.2482L3.15523 18.1615L0 21.3032L6.2286 27.5587L19.5839 14.1455Z" fill="#25B93D"/>
</svg>
