<svg width="199" height="40" viewBox="0 0 199 40" fill="none" xmlns="http://www.w3.org/2000/svg">
<path d="M42.9961 30.5561V7.36914H47.2359L58.1337 23.6995V7.36914H62.3735V30.5561H58.1337L47.2359 14.259V30.5561H42.9961Z" fill="#050430"/>
<path d="M73.096 30.9532C71.4396 30.9532 69.9713 30.5997 68.6905 29.8931C67.4098 29.1866 66.405 28.1928 65.6761 26.9121C64.9473 25.631 64.583 24.1516 64.583 22.4733C64.583 20.7729 64.9363 19.2603 65.6431 17.9353C66.3716 16.6103 67.3654 15.5835 68.6242 14.8548C69.9049 14.1039 71.4066 13.7285 73.1289 13.7285C74.7413 13.7285 76.1653 14.0818 77.4021 14.7885C78.6388 15.4951 79.5993 16.4668 80.2838 17.7034C80.9907 18.918 81.344 20.2761 81.344 21.7777C81.344 22.0206 81.333 22.2746 81.3106 22.5395C81.3106 22.8046 81.2996 23.0805 81.2776 23.3678H68.7898C68.8781 24.6485 69.3197 25.6533 70.1149 26.3818C70.9317 27.1107 71.9145 27.4749 73.063 27.4749C73.9241 27.4749 74.6416 27.2873 75.2159 26.9121C75.8121 26.5145 76.2537 26.0066 76.5409 25.3884H80.8471C80.5378 26.4262 80.0189 27.3756 79.29 28.2368C78.5835 29.076 77.7004 29.7385 76.6402 30.2244C75.6025 30.7103 74.421 30.9532 73.096 30.9532ZM73.1289 17.1734C72.0912 17.1734 71.1747 17.4716 70.3798 18.0678C69.5847 18.6419 69.0768 19.5252 68.8561 20.7177H77.0378C76.9715 19.6357 76.5739 18.7744 75.8454 18.134C75.1165 17.4936 74.2111 17.1734 73.1289 17.1734Z" fill="#050430"/>
<path d="M80.5645 30.5566L86.5266 22.3418L80.5645 14.127H85.1025L89.276 19.9568L93.4165 14.127H97.9876L91.9922 22.3418L97.9876 30.5566H93.4165L89.276 24.7268L85.1025 30.5566H80.5645Z" fill="#050430"/>
<path d="M106.354 30.5559C104.631 30.5559 103.251 30.1363 102.213 29.2971C101.175 28.458 100.656 26.9673 100.656 24.8254V17.6705H97.8408V14.1262H100.656L101.153 9.7207H104.896V14.1262H109.335V17.6705H104.896V24.8583C104.896 25.6535 105.062 26.2054 105.393 26.5147C105.746 26.8016 106.342 26.9453 107.182 26.9453H109.236V30.5559H106.354Z" fill="#050430"/>
<path d="M111.318 30.5557V14.126H115.062L115.426 16.3453C115.956 15.5503 116.652 14.921 117.513 14.4572C118.396 13.9714 119.412 13.7285 120.56 13.7285C123.1 13.7285 124.899 14.7112 125.959 16.6766C126.556 15.7712 127.35 15.0535 128.344 14.5235C129.36 13.9935 130.464 13.7285 131.657 13.7285C133.799 13.7285 135.444 14.3689 136.592 15.6497C137.74 16.9305 138.315 18.8076 138.315 21.2808V30.5557H134.075V21.6783C134.075 20.265 133.799 19.183 133.247 18.4322C132.717 17.6814 131.889 17.3059 130.762 17.3059C129.614 17.3059 128.687 17.7255 127.98 18.5646C127.295 19.4038 126.953 20.5742 126.953 22.0758V30.5557H122.713V21.6783C122.713 20.265 122.437 19.183 121.885 18.4322C121.333 17.6814 120.483 17.3059 119.334 17.3059C118.208 17.3059 117.292 17.7255 116.585 18.5646C115.901 19.4038 115.559 20.5742 115.559 22.0758V30.5557H111.318Z" fill="#050430"/>
<path d="M148.568 30.9532C146.978 30.9532 145.543 30.5887 144.262 29.8601C143.003 29.1313 141.998 28.1265 141.247 26.8457C140.519 25.5427 140.154 24.0413 140.154 22.3408C140.154 20.6404 140.53 19.1499 141.28 17.869C142.031 16.5661 143.036 15.5503 144.295 14.8216C145.576 14.0929 147.011 13.7285 148.601 13.7285C150.169 13.7285 151.582 14.0929 152.841 14.8216C154.121 15.5503 155.126 16.5661 155.855 17.869C156.606 19.1499 156.981 20.6404 156.981 22.3408C156.981 24.0413 156.606 25.5427 155.855 26.8457C155.126 28.1265 154.121 29.1313 152.841 29.8601C151.56 30.5887 150.136 30.9532 148.568 30.9532ZM148.568 27.2763C149.672 27.2763 150.633 26.8677 151.45 26.0506C152.267 25.2117 152.675 23.975 152.675 22.3408C152.675 20.7067 152.267 19.4811 151.45 18.664C150.633 17.8249 149.683 17.4053 148.601 17.4053C147.475 17.4053 146.503 17.8249 145.686 18.664C144.891 19.4811 144.493 20.7067 144.493 22.3408C144.493 23.975 144.891 25.2117 145.686 26.0506C146.503 26.8677 147.464 27.2763 148.568 27.2763Z" fill="#050430"/>
<path d="M162.746 30.5566L156.717 14.127H161.156L165.329 26.5484L169.503 14.127H173.941L167.88 30.5566H162.746Z" fill="#050430"/>
<path d="M182.134 30.9532C180.478 30.9532 179.009 30.5997 177.729 29.8931C176.448 29.1866 175.443 28.1928 174.714 26.9121C173.986 25.631 173.621 24.1516 173.621 22.4733C173.621 20.7729 173.975 19.2603 174.681 17.9353C175.41 16.6103 176.404 15.5835 177.662 14.8548C178.943 14.1039 180.445 13.7285 182.167 13.7285C183.779 13.7285 185.204 14.0818 186.44 14.7885C187.677 15.4951 188.637 16.4668 189.322 17.7034C190.029 18.918 190.382 20.2761 190.382 21.7777C190.382 22.0206 190.371 22.2746 190.349 22.5395C190.349 22.8046 190.338 23.0805 190.316 23.3678H177.828C177.916 24.6485 178.358 25.6533 179.153 26.3818C179.97 27.1107 180.953 27.4749 182.101 27.4749C182.962 27.4749 183.68 27.2873 184.254 26.9121C184.85 26.5145 185.292 26.0066 185.579 25.3884H189.885C189.576 26.4262 189.057 27.3756 188.328 28.2368C187.622 29.076 186.738 29.7385 185.678 30.2244C184.641 30.7103 183.459 30.9532 182.134 30.9532ZM182.167 17.1734C181.129 17.1734 180.213 17.4716 179.418 18.0678C178.623 18.6419 178.115 19.5252 177.894 20.7177H186.076C186.01 19.6357 185.612 18.7744 184.883 18.134C184.155 17.4936 183.249 17.1734 182.167 17.1734Z" fill="#050430"/>
<path d="M22.0889 6.91825V17.4002C22.0889 18.5966 21.119 19.5664 19.9226 19.5664H9.44068V15.234H14.6871L9.1748 9.72172L12.2383 6.6582L17.7564 12.1763V6.91825H22.0889Z" fill="#E9A217"/>
<path d="M34.8855 19.7148H24.4035C23.2071 19.7148 22.2373 20.6847 22.2373 21.8811V32.3632H26.5699V27.1162L32.0824 32.6288L35.1458 29.5654L29.6279 24.0472H34.8855V19.7148Z" fill="#E9A217"/>
</svg>
