<svg width="60" height="61" viewBox="0 0 60 61" fill="none" xmlns="http://www.w3.org/2000/svg">
<rect y="0.896484" width="60" height="60" rx="6" fill="#F3F0EE"/>
<path d="M34.7354 33.8527C35.0391 35.1376 35.048 36.4746 34.7616 37.7634C34.4752 39.0523 33.9008 40.2596 33.0815 41.295C32.2622 42.3303 31.2193 43.1668 30.0308 43.7418C28.8423 44.3168 27.539 44.6154 26.2188 44.6152V37.6152M34.7354 33.8527C37.5207 31.8239 39.7865 29.1649 41.3477 26.0931C42.909 23.0212 43.7215 19.6236 43.7188 16.1777C40.2731 16.1753 36.8758 16.9878 33.8042 18.5491C30.7327 20.1104 28.0739 22.376 26.0452 25.1611M34.7354 33.8527C32.2007 35.7067 29.2963 36.9902 26.2188 37.6152M26.2188 37.6152C26.0685 37.6459 25.9169 37.675 25.7652 37.7027C24.4422 36.6536 23.2443 35.4558 22.1952 34.1327C22.2228 33.9808 22.2505 33.8291 22.2813 33.6777M26.0452 25.1611C24.7602 24.8572 23.4231 24.848 22.1341 25.1343C20.845 25.4206 19.6375 25.9949 18.602 26.8143C17.5665 27.6336 16.7298 28.6766 16.1547 29.8653C15.5796 31.0539 15.281 32.3573 15.2813 33.6777H22.2813M26.0452 25.1611C24.1915 27.6954 22.9065 30.6007 22.2813 33.6777M19.016 37.1632C18.0567 37.8765 17.3109 38.8387 16.8592 39.9456C16.4076 41.0525 16.2673 42.2619 16.4538 43.4427C17.6347 43.629 18.8442 43.4886 19.9511 43.0366C21.058 42.5847 22.0201 41.8386 22.7333 40.879M36.0625 26.0215C36.0625 26.6017 35.832 27.1581 35.4218 27.5683C35.0116 27.9785 34.4552 28.209 33.875 28.209C33.2948 28.209 32.7384 27.9785 32.3282 27.5683C31.918 27.1581 31.6875 26.6017 31.6875 26.0215C31.6875 25.4413 31.918 24.8849 32.3282 24.4747C32.7384 24.0645 33.2948 23.834 33.875 23.834C34.4552 23.834 35.0116 24.0645 35.4218 24.4747C35.832 24.8849 36.0625 25.4413 36.0625 26.0215Z" stroke="#050430" stroke-width="1.5" stroke-linecap="round" stroke-linejoin="round"/>
</svg>
