<svg width="42" height="40" viewBox="0 0 42 40" fill="none" xmlns="http://www.w3.org/2000/svg">
<path d="M20.4612 31.9413C20.2924 31.9413 20.13 31.9413 19.9677 31.9348C13.2664 31.7595 6.67569 27.9932 0.376689 20.7531C0.162406 20.5064 0.168898 20.1362 0.39617 19.9025C7.73371 12.3114 15.0131 8.56492 22.0323 8.74653C28.7336 8.92186 35.3243 12.6881 41.6233 19.9282C41.8376 20.175 41.8311 20.5451 41.6038 20.7789C34.4417 28.1879 27.3312 31.9413 20.4612 31.9413ZM1.70801 20.3636C7.64961 27.0453 13.799 30.5129 19.9937 30.675C26.5262 30.8438 33.351 27.3633 40.2858 20.3178C34.3508 13.6361 28.2015 10.1685 22.0001 9.99974C15.4676 9.8309 8.6495 13.3179 1.70801 20.3636Z" fill="#050430"/>
<path d="M20.9998 29.2799C16.0714 29.2799 12.0581 25.2669 12.0581 20.3382C12.0581 15.4094 16.0711 11.3965 20.9998 11.3965C25.9285 11.3965 29.9415 15.4094 29.9415 20.3382C29.9415 25.2669 25.9285 29.2799 20.9998 29.2799ZM20.9998 12.6565C16.7658 12.6565 13.3182 16.1046 13.3182 20.3382C13.3182 24.5718 16.7662 28.0198 20.9998 28.0198C25.2334 28.0198 28.6814 24.5718 28.6814 20.3382C28.6814 16.1046 25.2334 12.6565 20.9998 12.6565Z" fill="#050430"/>
<path d="M21.0005 23.9033C19.0329 23.9033 17.4355 22.3059 17.4355 20.3384C17.4355 18.3709 19.033 16.7734 21.0005 16.7734C22.968 16.7734 24.5654 18.3709 24.5654 20.3384C24.5654 22.3059 22.968 23.9033 21.0005 23.9033ZM21.0005 18.0332C19.7277 18.0332 18.6953 19.0656 18.6953 20.3384C18.6953 21.6111 19.7277 22.6436 21.0005 22.6436C22.2732 22.6436 23.3057 21.6111 23.3057 20.3384C23.3057 19.0656 22.2732 18.0332 21.0005 18.0332Z" fill="#050430"/>
<path d="M21.0005 6.09088C20.6498 6.09088 20.3706 5.81165 20.3706 5.46102V0.629858C20.3706 0.27921 20.6498 0 21.0005 0C21.3511 0 21.6303 0.279222 21.6303 0.629858V5.46102C21.6303 5.81167 21.3511 6.09088 21.0005 6.09088Z" fill="#050430"/>
<path d="M11.2344 6.83695C10.9877 6.83695 10.7604 6.69409 10.6565 6.45383L8.74092 2.01873C8.60456 1.70055 8.74741 1.33044 9.07209 1.19404C9.39027 1.05768 9.76038 1.20054 9.89677 1.52521L11.8124 5.96032C11.9487 6.2785 11.8059 6.64861 11.4812 6.785C11.4033 6.82396 11.3123 6.83695 11.2344 6.83695Z" fill="#050430"/>
<path d="M30.7657 6.83602C30.6812 6.83602 30.5968 6.81653 30.5189 6.78407C30.2007 6.64771 30.0514 6.27755 30.1877 5.95938L32.1033 1.52428C32.2397 1.2061 32.6098 1.05674 32.928 1.19311C33.2462 1.32947 33.3955 1.69962 33.2592 2.01779L31.3436 6.4529C31.2462 6.69316 31.0124 6.83602 30.7657 6.83602Z" fill="#050430"/>
<path d="M21.0005 39.9991C20.6498 39.9991 20.3706 39.7199 20.3706 39.3692V34.5381C20.3706 34.1874 20.6498 33.9082 21.0005 33.9082C21.3511 33.9082 21.6303 34.1874 21.6303 34.5381V39.3692C21.6303 39.7199 21.3511 39.9991 21.0005 39.9991Z" fill="#050430"/>
<path d="M32.689 38.8584C32.4423 38.8584 32.215 38.7156 32.1111 38.4753L30.1955 34.0402C30.0591 33.722 30.202 33.3519 30.5267 33.2155C30.8449 33.0792 31.215 33.222 31.3514 33.5467L33.267 37.9818C33.4033 38.3 33.2605 38.6701 32.9358 38.8065C32.8579 38.839 32.7669 38.8584 32.689 38.8584Z" fill="#050430"/>
<path d="M9.31156 38.8575C9.22714 38.8575 9.14273 38.838 9.0648 38.8056C8.74662 38.6692 8.59727 38.299 8.73363 37.9809L10.6492 33.5458C10.7856 33.2276 11.1557 33.0782 11.4739 33.2146C11.7921 33.351 11.9414 33.7211 11.8051 34.0393L9.88949 38.4744C9.79208 38.7146 9.5583 38.8575 9.31156 38.8575Z" fill="#050430"/>
</svg>
