<svg width="52" height="39" viewBox="0 0 52 39" fill="none" xmlns="http://www.w3.org/2000/svg">
<path d="M22.8329 15.3868C22.8329 6.51517 17.8244 0.896484 10.9009 0.896484C4.41926 0.896484 0 5.48014 0 11.986C0 18.4918 4.27196 22.1883 9.57507 22.1883C11.1955 22.1883 12.5212 21.8926 13.6997 21.449C13.6997 26.6241 9.13314 30.6163 2.79887 31.7992V38.8965C14.5836 37.4179 22.8329 27.807 22.8329 15.3868ZM52 15.3868C52 6.51517 46.9915 0.896484 40.068 0.896484C33.5864 0.896484 29.1671 5.48014 29.1671 11.986C29.1671 18.4918 33.2918 22.1883 38.5949 22.1883C40.2153 22.1883 41.5411 21.8926 42.7196 21.449C42.7196 26.6241 38.3003 30.6163 31.966 31.7992V38.8965C43.7507 37.4179 52 27.807 52 15.3868Z" fill="#050430"/>
</svg>
