<svg width="1100" height="311" viewBox="0 0 1100 311" fill="none" xmlns="http://www.w3.org/2000/svg">
<line y1="-0.5" x2="94" y2="-0.5" transform="matrix(4.37114e-08 1 1 -4.37114e-08 160 217)" stroke="#211F50"/>
<line y1="-0.5" x2="116" y2="-0.5" transform="matrix(-4.37114e-08 1 1 4.37114e-08 144 195)" stroke="#211F50"/>
<line y1="-0.5" x2="137" y2="-0.5" transform="matrix(-4.37114e-08 1 1 4.37114e-08 128 174)" stroke="#211F50"/>
<line y1="-0.5" x2="158" y2="-0.5" transform="matrix(-4.37114e-08 1 1 4.37114e-08 112 153)" stroke="#211F50"/>
<line y1="-0.5" x2="182" y2="-0.5" transform="matrix(-4.37114e-08 1 1 4.37114e-08 96 129)" stroke="#211F50"/>
<line y1="-0.5" x2="204" y2="-0.5" transform="matrix(-4.37114e-08 1 1 4.37114e-08 80 107)" stroke="#211F50"/>
<line y1="-0.5" x2="229" y2="-0.5" transform="matrix(-4.37114e-08 1 1 4.37114e-08 64 82)" stroke="#211F50"/>
<line y1="-0.5" x2="245" y2="-0.5" transform="matrix(-4.37114e-08 1 1 4.37114e-08 48 66)" stroke="#211F50"/>
<line y1="-0.5" x2="263" y2="-0.5" transform="matrix(-4.37114e-08 1 1 4.37114e-08 32 48)" stroke="#211F50"/>
<line x1="16.5" y1="29" x2="16.5" y2="311" stroke="#211F50"/>
<line x1="0.5" y1="-2.18557e-08" x2="0.500014" y2="311" stroke="#211F50"/>
<line x1="940.5" y1="217" x2="940.5" y2="311" stroke="#211F50"/>
<line x1="956.5" y1="195" x2="956.5" y2="311" stroke="#211F50"/>
<line x1="972.5" y1="174" x2="972.5" y2="311" stroke="#211F50"/>
<line x1="988.5" y1="153" x2="988.5" y2="311" stroke="#211F50"/>
<line x1="1004.5" y1="129" x2="1004.5" y2="311" stroke="#211F50"/>
<line x1="1020.5" y1="107" x2="1020.5" y2="311" stroke="#211F50"/>
<line x1="1036.5" y1="82" x2="1036.5" y2="311" stroke="#211F50"/>
<line x1="1052.5" y1="66" x2="1052.5" y2="311" stroke="#211F50"/>
<line x1="1068.5" y1="48" x2="1068.5" y2="311" stroke="#211F50"/>
<line y1="-0.5" x2="282" y2="-0.5" transform="matrix(-4.37114e-08 1 1 4.37114e-08 1084 29)" stroke="#211F50"/>
<line y1="-0.5" x2="311" y2="-0.5" transform="matrix(-4.37114e-08 1 1 4.37114e-08 1100 0)" stroke="#211F50"/>
</svg>
