<svg width="157" height="24" viewBox="0 0 157 24" fill="none" xmlns="http://www.w3.org/2000/svg">
<path d="M5.15362 19.3418L3.75391 20.6512L5.15362 21.78V19.3418Z" fill="white"/>
<path d="M8.76553 23.4045L6.86914 22.6821V17.8508L8.76553 16.0898V23.4045Z" fill="white"/>
<path d="M12.379 23.7669L10.4375 23.7217V14.601L12.379 12.7949V23.7669Z" fill="white"/>
<path d="M13.957 11.4398V23.676C22.8068 22.0054 27.2318 12.0719 21.2717 4.48633L13.957 11.4398Z" fill="white"/>
<path d="M4.47626 16.5871L2.1735 18.8447C-1.0323 14.1038 -0.806543 8.18885 3.61837 3.62848C8.13358 -0.841581 15.3128 -0.706125 19.6925 2.90605L17.2995 5.16364C14.184 3.1318 10.4815 2.99635 7.14024 5.16364C3.43776 7.78246 2.1735 12.4783 4.47626 16.5871Z" fill="#9CD6AE"/>
<path d="M32.2462 20V3.32803H39.2623C43.3145 3.32803 45.3522 5.66674 45.3522 8.72327C45.3522 11.7566 43.3145 14.0953 39.2623 14.0953H35.349V20H32.2462ZM35.349 11.3861H39.1002C41.2074 11.3861 42.2031 10.3905 42.2031 8.72327C42.2031 7.05607 41.2074 6.03723 39.1002 6.03723H35.349V11.3861ZM47.302 20V7.95913H50.1269V10.1126C50.9374 8.42224 52.2341 7.8202 53.7624 7.8202H54.7117V10.5062H53.6466C51.6089 10.5062 50.2196 11.363 50.2196 14.1648V20H47.302ZM62.1311 20.2779C58.2641 20.2779 56.0412 17.5687 56.0412 13.9796C56.0412 10.3905 58.2641 7.68127 62.1311 7.68127C65.9981 7.68127 68.221 10.3905 68.221 13.9796C68.221 17.5687 65.9981 20.2779 62.1311 20.2779ZM59.0051 13.9796C59.0051 16.2951 59.9776 17.8465 62.1311 17.8465C64.2846 17.8465 65.2571 16.2951 65.2571 13.9796C65.2571 11.664 64.2846 10.1126 62.1311 10.1126C59.9776 10.1126 59.0051 11.664 59.0051 13.9796Z" fill="#9CD6AE"/>
<path d="M70.394 20V3.32803H77.0628C81.1381 3.32803 83.1527 5.11101 83.1527 7.77389C83.1527 9.30215 82.4812 10.4831 81.1381 11.2241C82.9443 11.9882 83.8473 13.4238 83.8473 15.1837C83.8473 18.1707 81.8328 20 77.7574 20H70.394ZM73.4968 17.3834H77.7574C79.7488 17.3834 80.6519 16.573 80.6519 15.091C80.6519 13.5859 79.7488 12.7755 77.7574 12.7755H73.4968V17.3834ZM73.4968 10.2515H77.1554C79.1468 10.2515 80.073 9.44109 80.073 8.09807C80.073 6.75505 79.1468 5.9446 77.1554 5.9446H73.4968V10.2515ZM93.2251 20V18.6107C92.1831 19.8611 90.9096 20.2779 89.4045 20.2779C86.7879 20.2779 85.0049 18.9812 85.0049 16.6425C85.0049 14.5121 86.51 13.447 89.636 12.9144L93.1325 12.2892V11.5945C93.1325 10.5062 92.4842 9.92735 90.9327 9.92735C89.6129 9.92735 88.5014 10.4831 88.432 11.8029H85.5607C85.607 8.93166 88.0152 7.68127 90.9096 7.68127C94.3366 7.68127 95.9806 9.0706 95.9806 11.2704V20H93.2251ZM87.992 16.5498C87.992 17.4992 88.6404 18.1244 90.0528 18.1244C91.5811 18.1244 93.1325 17.314 93.1325 15.3226V14.2574L90.1686 14.8595C88.8024 15.1373 87.992 15.4615 87.992 16.5498ZM98.1582 3.32803H101.076V16.6193C101.076 17.4066 101.354 17.7539 102.234 17.7539H103.808V20H101.493C99.4549 20 98.1582 19.3516 98.1582 16.9203V3.32803ZM113.237 20V18.6107C112.195 19.8611 110.922 20.2779 109.417 20.2779C106.8 20.2779 105.017 18.9812 105.017 16.6425C105.017 14.5121 106.522 13.447 109.648 12.9144L113.145 12.2892V11.5945C113.145 10.5062 112.496 9.92735 110.945 9.92735C109.625 9.92735 108.514 10.4831 108.444 11.8029H105.573C105.619 8.93166 108.027 7.68127 110.922 7.68127C114.349 7.68127 115.993 9.0706 115.993 11.2704V20H113.237ZM108.004 16.5498C108.004 17.4992 108.653 18.1244 110.065 18.1244C111.593 18.1244 113.145 17.314 113.145 15.3226V14.2574L110.181 14.8595C108.815 15.1373 108.004 15.4615 108.004 16.5498ZM126.182 12.7523C126.182 11.2935 125.534 10.2284 123.867 10.2284C122.871 10.2284 121.296 10.7841 121.088 12.8913V20H118.171V7.95913H120.995V9.60317C121.829 8.49171 123.079 7.68127 124.793 7.68127C127.572 7.68127 129.077 9.58002 129.077 12.405V20H126.182V12.7523ZM137.021 20.2779C133.34 20.2779 131.117 17.5687 131.117 13.9796C131.117 10.3905 133.34 7.68127 137.021 7.68127C140.333 7.68127 142.231 9.55686 142.602 12.2661H139.684C139.406 10.923 138.457 10.1126 137.021 10.1126C135.053 10.1126 134.081 11.664 134.081 13.9796C134.081 16.2951 135.053 17.8465 137.021 17.8465C138.503 17.8465 139.43 16.9898 139.684 15.5541H142.602C142.255 18.3328 140.263 20.2779 137.021 20.2779ZM149.843 20.2779C146.115 20.2779 143.892 17.5687 143.892 13.9796C143.892 10.3905 146.115 7.68127 149.843 7.68127C153.571 7.68127 155.794 10.2978 155.794 14.2111V14.9058H146.786C147.041 16.7814 148.106 17.9855 149.843 17.9855C151.255 17.9855 152.205 17.3834 152.714 16.3183H155.562C154.775 18.7033 152.714 20.2779 149.843 20.2779ZM146.81 12.8218H152.853C152.552 11.062 151.51 9.97366 149.843 9.97366C148.176 9.97366 147.134 11.062 146.81 12.8218Z" fill="white"/>
</svg>
