<svg width="157" height="24" viewBox="0 0 157 24" fill="none" xmlns="http://www.w3.org/2000/svg">
<path d="M5.15362 19.3418L3.75391 20.6512L5.15362 21.78V19.3418Z" fill="#050430"/>
<path d="M8.76553 23.4045L6.86914 22.6821V17.8508L8.76553 16.0898V23.4045Z" fill="#050430"/>
<path d="M12.3781 23.7669L10.4365 23.7217V14.601L12.3781 12.7949V23.7669Z" fill="#050430"/>
<path d="M13.958 11.4398V23.676C22.8078 22.0054 27.2327 12.0719 21.2727 4.48633L13.958 11.4398Z" fill="#050430"/>
<path d="M4.47626 16.5871L2.1735 18.8447C-1.0323 14.1038 -0.806543 8.18885 3.61837 3.62848C8.13358 -0.841581 15.3128 -0.706125 19.6925 2.90605L17.2995 5.16364C14.184 3.1318 10.4815 2.99635 7.14024 5.16364C3.43776 7.78246 2.1735 12.4783 4.47626 16.5871Z" fill="#050430"/>
<path d="M32.2457 20V3.32803H39.2618C43.314 3.32803 45.3517 5.66674 45.3517 8.72327C45.3517 11.7566 43.314 14.0953 39.2618 14.0953H35.3485V20H32.2457ZM35.3485 11.3861H39.0997C41.2069 11.3861 42.2026 10.3905 42.2026 8.72327C42.2026 7.05607 41.2069 6.03723 39.0997 6.03723H35.3485V11.3861ZM47.3015 20V7.95913H50.1265V10.1126C50.9369 8.42224 52.2336 7.8202 53.7619 7.8202H54.7113V10.5062H53.6461C51.6084 10.5062 50.2191 11.363 50.2191 14.1648V20H47.3015ZM62.1306 20.2779C58.2636 20.2779 56.0407 17.5687 56.0407 13.9796C56.0407 10.3905 58.2636 7.68127 62.1306 7.68127C65.9976 7.68127 68.2205 10.3905 68.2205 13.9796C68.2205 17.5687 65.9976 20.2779 62.1306 20.2779ZM59.0046 13.9796C59.0046 16.2951 59.9771 17.8465 62.1306 17.8465C64.2841 17.8465 65.2566 16.2951 65.2566 13.9796C65.2566 11.664 64.2841 10.1126 62.1306 10.1126C59.9771 10.1126 59.0046 11.664 59.0046 13.9796ZM70.3935 20V3.32803H77.0623C81.1377 3.32803 83.1522 5.11101 83.1522 7.77389C83.1522 9.30215 82.4807 10.4831 81.1377 11.2241C82.9438 11.9882 83.8469 13.4238 83.8469 15.1837C83.8469 18.1707 81.8323 20 77.757 20H70.3935ZM73.4963 17.3834H77.757C79.7483 17.3834 80.6514 16.573 80.6514 15.091C80.6514 13.5859 79.7483 12.7755 77.757 12.7755H73.4963V17.3834ZM73.4963 10.2515H77.1549C79.1463 10.2515 80.0725 9.44109 80.0725 8.09807C80.0725 6.75505 79.1463 5.9446 77.1549 5.9446H73.4963V10.2515ZM93.2247 20V18.6107C92.1827 19.8611 90.9091 20.2779 89.404 20.2779C86.7874 20.2779 85.0044 18.9812 85.0044 16.6425C85.0044 14.5121 86.5096 13.447 89.6356 12.9144L93.132 12.2892V11.5945C93.132 10.5062 92.4837 9.92735 90.9323 9.92735C89.6124 9.92735 88.5009 10.4831 88.4315 11.8029H85.5602C85.6065 8.93166 88.0147 7.68127 90.9091 7.68127C94.3361 7.68127 95.9802 9.0706 95.9802 11.2704V20H93.2247ZM87.9915 16.5498C87.9915 17.4992 88.6399 18.1244 90.0524 18.1244C91.5806 18.1244 93.132 17.314 93.132 15.3226V14.2574L90.1681 14.8595C88.802 15.1373 87.9915 15.4615 87.9915 16.5498ZM98.1577 3.32803H101.075V16.6193C101.075 17.4066 101.353 17.7539 102.233 17.7539H103.808V20H101.492C99.4544 20 98.1577 19.3516 98.1577 16.9203V3.32803ZM113.237 20V18.6107C112.195 19.8611 110.921 20.2779 109.416 20.2779C106.8 20.2779 105.017 18.9812 105.017 16.6425C105.017 14.5121 106.522 13.447 109.648 12.9144L113.144 12.2892V11.5945C113.144 10.5062 112.496 9.92735 110.945 9.92735C109.625 9.92735 108.513 10.4831 108.444 11.8029H105.573C105.619 8.93166 108.027 7.68127 110.921 7.68127C114.348 7.68127 115.992 9.0706 115.992 11.2704V20H113.237ZM108.004 16.5498C108.004 17.4992 108.652 18.1244 110.065 18.1244C111.593 18.1244 113.144 17.314 113.144 15.3226V14.2574L110.18 14.8595C108.814 15.1373 108.004 15.4615 108.004 16.5498ZM126.182 12.7523C126.182 11.2935 125.533 10.2284 123.866 10.2284C122.871 10.2284 121.296 10.7841 121.088 12.8913V20H118.17V7.95913H120.995V9.60317C121.829 8.49171 123.079 7.68127 124.792 7.68127C127.571 7.68127 129.076 9.58002 129.076 12.405V20H126.182V12.7523ZM137.021 20.2779C133.339 20.2779 131.116 17.5687 131.116 13.9796C131.116 10.3905 133.339 7.68127 137.021 7.68127C140.332 7.68127 142.231 9.55686 142.601 12.2661H139.684C139.406 10.923 138.457 10.1126 137.021 10.1126C135.053 10.1126 134.08 11.664 134.08 13.9796C134.08 16.2951 135.053 17.8465 137.021 17.8465C138.503 17.8465 139.429 16.9898 139.684 15.5541H142.601C142.254 18.3328 140.263 20.2779 137.021 20.2779ZM149.842 20.2779C146.114 20.2779 143.891 17.5687 143.891 13.9796C143.891 10.3905 146.114 7.68127 149.842 7.68127C153.57 7.68127 155.793 10.2978 155.793 14.2111V14.9058H146.786C147.041 16.7814 148.106 17.9855 149.842 17.9855C151.255 17.9855 152.204 17.3834 152.714 16.3183H155.562C154.775 18.7033 152.714 20.2779 149.842 20.2779ZM146.809 12.8218H152.853C152.552 11.062 151.51 9.97366 149.842 9.97366C148.175 9.97366 147.133 11.062 146.809 12.8218Z" fill="#050430"/>
</svg>
