<svg width="41" height="40" viewBox="0 0 41 40" fill="none" xmlns="http://www.w3.org/2000/svg">
<path d="M40.4935 6.53174L35.2277 5.61524L38.2666 2.57633C38.4997 2.34318 38.4997 1.95729 38.2666 1.72414C38.0334 1.491 37.6475 1.491 37.4144 1.72414L34.1343 5.00424L31.6823 0.325278C31.5295 0.0278183 31.1597 -0.0847338 30.8703 0.0680159C30.5728 0.220766 30.4603 0.590581 30.613 0.880001L33.2339 5.88858L31.2079 7.91453L29.1659 2.37534C29.0534 2.0618 28.6996 1.90101 28.3941 2.0216C28.0806 2.13416 27.9198 2.47985 28.0404 2.79339L30.2754 8.85514L26.8184 12.3121C23.9644 9.66713 20.1617 8.03512 15.9732 8.03512C7.16192 8.03512 -0.00927734 15.2063 -0.00927734 24.0176C-0.00927734 32.8288 7.16192 40 15.9732 40C24.7844 40 31.9556 32.8288 31.9556 24.0176C31.9556 19.829 30.3236 16.0183 27.6786 13.1723L31.1838 9.66713L38.0013 10.9293C38.0013 10.9293 38.0736 10.9374 38.1138 10.9374C38.3952 10.9374 38.6525 10.7364 38.7087 10.447C38.7731 10.1173 38.556 9.8038 38.2264 9.74752L32.2289 8.63808L34.1986 6.66841L40.3006 7.73766C40.3006 7.73766 40.3729 7.7457 40.4051 7.7457C40.6945 7.7457 40.9437 7.53667 41 7.24725C41.0563 6.91763 40.8392 6.60409 40.5096 6.54782L40.4935 6.53174ZM30.7497 24.0095C30.7497 32.1535 24.1252 38.786 15.9732 38.786C7.82115 38.786 1.19664 32.1615 1.19664 24.0095C1.19664 15.8575 7.82919 9.233 15.9732 9.233C19.8321 9.233 23.3373 10.7283 25.9662 13.1563L22.453 16.6695C20.7245 15.142 18.4574 14.2014 15.9732 14.2014C10.5706 14.2014 6.17307 18.599 6.17307 24.0015C6.17307 29.404 10.5706 33.8016 15.9732 33.8016C21.3757 33.8016 25.7733 29.404 25.7733 24.0015C25.7733 21.5173 24.8326 19.2502 23.3051 17.5217L26.8184 14.0084C29.2463 16.6454 30.7416 20.1506 30.7416 24.0015L30.7497 24.0095ZM15.5471 24.4356C15.6677 24.5562 15.8204 24.6125 15.9732 24.6125C16.1259 24.6125 16.2787 24.5562 16.3993 24.4356L18.5136 22.3212C18.8352 22.8036 19.0282 23.3824 19.0282 24.0095C19.0282 25.6978 17.6614 27.0645 15.9732 27.0645C14.2849 27.0645 12.9182 25.6978 12.9182 24.0095C12.9182 22.3212 14.2849 20.9545 15.9732 20.9545C16.6002 20.9545 17.1791 21.1475 17.6614 21.4691L15.5471 23.5834C15.3139 23.8166 15.3139 24.2025 15.5471 24.4356ZM18.5217 20.6088C17.8062 20.0702 16.9379 19.7486 15.9812 19.7486C13.6337 19.7486 11.7203 21.662 11.7203 24.0095C11.7203 26.357 13.6337 28.2704 15.9812 28.2704C18.3287 28.2704 20.2421 26.357 20.2421 24.0095C20.2421 23.0528 19.9125 22.1765 19.3819 21.4691L22.469 18.3819C23.7795 19.8933 24.5834 21.8549 24.5834 24.0095C24.5834 28.7448 20.7245 32.6037 15.9892 32.6037C11.254 32.6037 7.39506 28.7448 7.39506 24.0095C7.39506 19.2743 11.254 15.4153 15.9892 15.4153C18.1438 15.4153 20.1054 16.2193 21.6169 17.5297L18.5297 20.6169L18.5217 20.6088Z" fill="#050430"/>
</svg>
