<svg width="25" height="24" viewBox="0 0 25 24" fill="none" xmlns="http://www.w3.org/2000/svg">
<path fill-rule="evenodd" clip-rule="evenodd" d="M3 3.67091C3 3.22776 3.17604 2.80276 3.4894 2.4894C3.80275 2.17604 4.22776 2 4.67091 2H21.3273C21.5469 1.99964 21.7644 2.0426 21.9674 2.12643C22.1704 2.21025 22.3548 2.33328 22.5102 2.48849C22.6656 2.6437 22.7888 2.82802 22.8729 3.03092C22.9569 3.23382 23.0001 3.4513 23 3.67091V20.3273C23.0002 20.5469 22.9572 20.7645 22.8732 20.9675C22.7893 21.1705 22.6662 21.3549 22.5109 21.5103C22.3556 21.6656 22.1713 21.7889 21.9683 21.8729C21.7654 21.9569 21.5478 22.0001 21.3282 22H4.67091C4.45141 22 4.23405 21.9568 4.03127 21.8727C3.82849 21.7887 3.64425 21.6655 3.48908 21.5103C3.33391 21.355 3.21085 21.1707 3.12693 20.9679C3.04301 20.7651 2.99988 20.5477 3 20.3282V3.67091ZM10.9164 9.62546H13.6245V10.9855C14.0155 10.2036 15.0155 9.5 16.5182 9.5C19.3991 9.5 20.0818 11.0573 20.0818 13.9145V19.2073H17.1664V14.5655C17.1664 12.9382 16.7755 12.02 15.7827 12.02C14.4055 12.02 13.8327 13.01 13.8327 14.5655V19.2073H10.9164V9.62546ZM5.91636 19.0827H8.83273V9.5H5.91636V19.0827ZM9.25 6.37455C9.2555 6.62425 9.21107 6.87254 9.11931 7.10483C9.02755 7.33713 8.89032 7.54876 8.71566 7.7273C8.54101 7.90585 8.33245 8.0477 8.10223 8.14455C7.87201 8.2414 7.62476 8.29129 7.375 8.29129C7.12524 8.29129 6.87799 8.2414 6.64777 8.14455C6.41755 8.0477 6.20899 7.90585 6.03433 7.7273C5.85968 7.54876 5.72245 7.33713 5.63069 7.10483C5.53893 6.87254 5.4945 6.62425 5.5 6.37455C5.51079 5.88441 5.71308 5.41799 6.06353 5.07517C6.41399 4.73235 6.88475 4.54038 7.375 4.54038C7.86525 4.54038 8.33601 4.73235 8.68647 5.07517C9.03692 5.41799 9.23921 5.88441 9.25 6.37455Z" fill="#9CD6AE"/>
</svg>
