<svg width="25" height="24" viewBox="0 0 25 24" fill="none" xmlns="http://www.w3.org/2000/svg">
<path d="M23.2091 6C22.4391 6.35 21.6091 6.58 20.7491 6.69C21.6291 6.16 22.3091 5.32 22.6291 4.31C21.7991 4.81 20.8791 5.16 19.9091 5.36C19.1191 4.5 18.0091 4 16.7491 4C14.3991 4 12.4791 5.92 12.4791 8.29C12.4791 8.63 12.5191 8.96 12.5891 9.27C9.02906 9.09 5.85906 7.38 3.74906 4.79C3.37906 5.42 3.16906 6.16 3.16906 6.94C3.16906 8.43 3.91906 9.75 5.07906 10.5C4.36906 10.5 3.70906 10.3 3.12906 10V10.03C3.12906 12.11 4.60906 13.85 6.56906 14.24C5.93979 14.4122 5.27916 14.4362 4.63906 14.31C4.91067 15.1625 5.4426 15.9084 6.16008 16.4429C6.87756 16.9775 7.74451 17.2737 8.63906 17.29C7.12269 18.4904 5.24306 19.1393 3.30906 19.13C2.96906 19.13 2.62906 19.11 2.28906 19.07C4.18906 20.29 6.44906 21 8.86906 21C16.7491 21 21.0791 14.46 21.0791 8.79C21.0791 8.6 21.0791 8.42 21.0691 8.23C21.9091 7.63 22.6291 6.87 23.2091 6Z" fill="#9CD6AE"/>
</svg>
